<svg xmlns="http://www.w3.org/2000/svg" xmlns:xlink="http://www.w3.org/1999/xlink" viewBox="0 0 137.44 133.16"><defs><style>.cls-1,.cls-10,.cls-11,.cls-2,.cls-3,.cls-4,.cls-5,.cls-6,.cls-7,.cls-8,.cls-9{fill-rule:evenodd;}.cls-1{fill:url(#GradientFill_3);}.cls-2{fill:#494949;}.cls-3{fill:#ff7272;}.cls-4{fill:#8c8c8c;}.cls-5{fill:url(#GradientFill_3-2);}.cls-6{fill:url(#GradientFill_5);}.cls-7{fill:url(#GradientFill_6);}.cls-8{fill:url(#GradientFill_7);}.cls-9{fill:#9da5ab;}.cls-10{fill:#ffbbb8;}.cls-11{fill:gray;}</style><linearGradient id="GradientFill_3" x1="0.69" y1="131.81" x2="64.03" y2="80.51" gradientUnits="userSpaceOnUse"><stop offset="0" stop-color="#858f98"/><stop offset="1" stop-color="#848e95"/></linearGradient><linearGradient id="GradientFill_3-2" x1="54.69" y1="143.19" x2="138.7" y2="75.17" xlink:href="#GradientFill_3"/><linearGradient id="GradientFill_5" x1="70.43" y1="92.16" x2="117.25" y2="54.24" gradientUnits="userSpaceOnUse"><stop offset="0" stop-color="#bb4247"/><stop offset="1" stop-color="#ee343c"/></linearGradient><linearGradient id="GradientFill_6" x1="6.69" y1="128.54" x2="187.73" y2="19.76" gradientUnits="userSpaceOnUse"><stop offset="0"/><stop offset="1" stop-color="#6d6e71"/></linearGradient><linearGradient id="GradientFill_7" x1="96.47" y1="205.5" x2="-32.87" y2="-59.69" gradientUnits="userSpaceOnUse"><stop offset="0" stop-color="#58595b"/><stop offset="1" stop-color="#858d91"/></linearGradient></defs><title>Asset 3</title><g id="Layer_2" data-name="Layer 2"><g id="Слой_1" data-name="Слой 1"><polygon class="cls-1" points="8.52 97.49 19.05 94.8 52.32 110.05 52.34 117.95 8.52 97.49"/><polygon class="cls-2" points="7.24 28.75 18.13 32.99 19.05 94.8 8.52 97.49 7.24 28.75"/><polygon class="cls-3" points="52.11 46.24 52.32 110.05 19.05 94.8 18.13 32.99 52.11 46.24"/><polygon class="cls-4" points="118.48 99.33 119.76 35.31 128.44 33.35 126.84 102.82 118.48 99.33"/><polygon class="cls-5" points="69.54 119.25 69.56 113.1 118.48 99.33 126.84 102.82 69.54 119.25"/><polygon class="cls-6" points="69.75 46.62 119.76 35.31 118.48 99.33 69.56 113.1 69.75 46.62"/><path class="cls-7" d="M135.08,110.94,60,133.16,60,37l77.47-16.76-2.36,90.73Zm-6.64-77.59h0l-8.68,2-50,11.31-.19,66.48,0,6.15,57.3-16.43Z"/><path class="cls-8" d="M60,133.16,1.9,105.3,0,14.39,60,37l0,96.19ZM8.52,97.49h0L52.34,118l0-7.91-.21-63.81L18.13,33,7.24,28.75Z"/><path class="cls-9" d="M137.37,20.19,60,37,0,14.39,76.42,0l61,20.19ZM118.3,19.4h0L74.36,4.61,19.14,15.2l22,8.13,21.39,7.9,33.31-7.07Z"/><polygon class="cls-10" points="62.53 31.23 41.15 23.33 74.3 16.63 95.85 24.16 62.53 31.23"/><polygon class="cls-11" points="118.3 19.4 95.85 24.16 74.3 16.63 74.36 4.61 118.3 19.4"/><polygon class="cls-2" points="41.15 23.33 19.14 15.2 74.36 4.61 74.3 16.63 41.15 23.33"/></g></g></svg>