<svg xmlns="http://www.w3.org/2000/svg" xmlns:xlink="http://www.w3.org/1999/xlink" viewBox="0 0 137.99 137.22"><defs><style>.cls-1,.cls-10,.cls-11,.cls-2,.cls-3,.cls-4,.cls-5,.cls-6,.cls-7,.cls-8,.cls-9{fill-rule:evenodd;}.cls-1{fill:url(#GradientFill_6);}.cls-2{fill:#9da5ab;}.cls-3{fill:url(#GradientFill_5);}.cls-4{fill:url(#GradientFill_4);}.cls-5{fill:#ffbbb8;}.cls-6{fill:url(#GradientFill_8);}.cls-7{fill:url(#GradientFill_4-2);}.cls-8{fill:#ffb6b3;}.cls-9{fill:#c23333;}.cls-10{fill:#ff7272;}.cls-11{fill:url(#GradientFill_5-2);}</style><linearGradient id="GradientFill_6" x1="7.23" y1="132.6" x2="188.17" y2="23.88" gradientUnits="userSpaceOnUse"><stop offset="0"/><stop offset="1" stop-color="#6d6e71"/></linearGradient><linearGradient id="GradientFill_5" x1="59.2" y1="50.48" x2="122.79" y2="-1.02" gradientUnits="userSpaceOnUse"><stop offset="0" stop-color="#bb4247"/><stop offset="1" stop-color="#ee343c"/></linearGradient><linearGradient id="GradientFill_4" x1="-5.64" y1="68.17" x2="88.71" y2="-22.95" gradientUnits="userSpaceOnUse"><stop offset="0" stop-color="#f3716d"/><stop offset="1" stop-color="#ee343c"/></linearGradient><linearGradient id="GradientFill_8" x1="51.01" y1="166.97" x2="12.98" y2="-11.94" gradientUnits="userSpaceOnUse"><stop offset="0" stop-color="#000007"/><stop offset="1" stop-color="#676a74"/></linearGradient><linearGradient id="GradientFill_4-2" x1="43.8" y1="120.27" x2="1.76" y2="34.07" xlink:href="#GradientFill_4"/><linearGradient id="GradientFill_5-2" x1="78.72" y1="102.58" x2="130.58" y2="60.59" xlink:href="#GradientFill_5"/></defs><title>Asset 4</title><g id="Layer_2" data-name="Layer 2"><g id="Слой_1" data-name="Слой 1"><path class="cls-1" d="M135.55,115.06,60.46,137.22,60.5,41,138,24.33l-2.44,90.73ZM70.28,50.69h0L70,123.31l6,2.78,57.37-16.61,1.82-69.84L129,37.46Z"/><polygon class="cls-2" points="63.15 35.3 118.92 23.53 119.03 18.03 137.99 24.33 60.54 41.01 60.54 41.03 0.63 18.41 19.71 14.84 19.77 19.24 63.15 35.3"/><polygon class="cls-3" points="119.11 14.48 119.03 18.03 118.92 23.53 63.15 35.3 63.16 25.85 119.11 14.48"/><polygon class="cls-4" points="19.71 14.84 19.65 10.17 63.16 25.85 63.15 35.3 19.77 19.24 19.71 14.84"/><polygon class="cls-5" points="0 34.35 0.95 34.16 7.86 32.78 52.72 50.31 44.74 52.08 0 34.35"/><polygon class="cls-6" points="60.54 41.03 60.5 137.22 2.46 109.32 2.35 103.92 45.11 124.21 52.88 122.03 52.72 50.31 7.86 32.78 0.95 34.16 0.63 18.41 60.54 41.03"/><polygon class="cls-7" points="45.11 124.21 2.35 103.92 1.41 103.47 0 34.35 44.74 52.08 45.11 124.21"/><polygon class="cls-8" points="75.04 0 119.11 14.48 63.16 25.85 19.65 10.17 75.04 0"/><polygon class="cls-9" points="52.72 50.31 52.88 122.03 45.11 124.21 44.74 52.08 52.72 50.31"/><polygon class="cls-10" points="70.08 123.33 70.36 50.71 76.54 53.08 76.11 126.11 70.08 123.33"/><polygon class="cls-5" points="70.36 50.71 129.06 37.49 135.31 39.66 76.54 53.08 70.36 50.71"/><polygon class="cls-11" points="135.31 39.66 133.48 109.5 76.11 126.11 76.54 53.08 135.31 39.66"/></g></g></svg>