<svg xmlns="http://www.w3.org/2000/svg" xmlns:xlink="http://www.w3.org/1999/xlink" viewBox="0 0 140.35 135.55"><defs><style>.cls-1{fill:#ff7272;}.cls-1,.cls-2,.cls-3,.cls-4,.cls-5,.cls-6,.cls-7{fill-rule:evenodd;}.cls-2{fill:url(#GradientFill_8);}.cls-3{fill:#ffbbb8;}.cls-4{fill:url(#GradientFill_5);}.cls-5{fill:#9da5ab;}.cls-6{fill:url(#GradientFill_5-2);}.cls-7{fill:url(#GradientFill_6);}</style><linearGradient id="GradientFill_8" x1="88.02" y1="160.79" x2="44.95" y2="0.06" gradientUnits="userSpaceOnUse"><stop offset="0" stop-color="#000007"/><stop offset="1" stop-color="#676a74"/></linearGradient><linearGradient id="GradientFill_5" x1="74.97" y1="63.45" x2="126.37" y2="18.76" gradientUnits="userSpaceOnUse"><stop offset="0" stop-color="#bb4247"/><stop offset="1" stop-color="#ee343c"/></linearGradient><linearGradient id="GradientFill_5-2" x1="78.05" y1="131.05" x2="127.01" y2="88.49" xlink:href="#GradientFill_5"/><linearGradient id="GradientFill_6" x1="53.1" y1="113.97" x2="185.89" y2="27.74" gradientUnits="userSpaceOnUse"><stop offset="0"/><stop offset="1" stop-color="#6d6e71"/></linearGradient></defs><title>Asset 1</title><g id="Layer_2" data-name="Layer 2"><g id="Слой_1" data-name="Слой 1"><polygon class="cls-1" points="66.03 135.56 5.55 109.69 4.07 85.12 16.13 89.96 16.33 93.64 25.31 93.64 65 109.56 66.03 135.56"/><polygon class="cls-2" points="15.66 81.76 14.86 67.45 116.69 67.45 117.24 93.64 113.92 93.64 25.31 93.64 16.33 93.64 16.13 89.96 15.66 81.76"/><polygon class="cls-3" points="25.31 93.64 113.92 93.64 65 109.56 25.31 93.64"/><polygon class="cls-1" points="1.56 43.62 0 17.88 62.19 38.26 63.27 65.58 22.58 51.1 1.56 43.62"/><polygon class="cls-3" points="62.19 38.26 0 17.88 76.08 0 139.17 17.9 62.19 38.26"/><polygon class="cls-4" points="62.19 38.26 139.17 17.9 139.5 43.64 122.11 48.64 119.87 49.29 63.27 65.58 62.19 38.26"/><polygon class="cls-5" points="63.27 65.58 119.87 49.29 116.69 67.45 14.86 67.45 22.58 51.1 63.27 65.58"/><polygon class="cls-3" points="15.66 81.76 16.13 89.96 4.07 85.12 15.66 81.76"/><polygon class="cls-6" points="140.35 109.72 66.03 135.56 65 109.56 113.92 93.64 117.24 93.64 117.42 92.5 140.04 85.14 140.35 109.72"/><polygon class="cls-3" points="140.04 85.14 117.42 92.5 119.75 78.08 140.04 85.14"/><polygon class="cls-7" points="119.75 78.08 117.42 92.5 117.24 93.64 116.69 67.45 119.87 49.29 122.11 48.64 122.36 61.85 119.75 78.08"/></g></g></svg>