<svg xmlns="http://www.w3.org/2000/svg" xmlns:xlink="http://www.w3.org/1999/xlink" viewBox="0 0 86.23 89.47"><defs><style>.cls-1{fill:#fff;}.cls-2{fill:url(#Degradado_sin_nombre_11);}.cls-3{fill:#75aff5;}.cls-4{fill:none;stroke:#75aff5;stroke-linecap:round;stroke-miterlimit:10;stroke-width:3.56px;}.cls-5{fill:#fc0303;}.cls-6{fill:#f0ca8e;}</style><linearGradient id="Degradado_sin_nombre_11" x1="50.24" y1="8.3" x2="47.55" y2="89.36" gradientUnits="userSpaceOnUse"><stop offset="0" stop-color="#75aff5"/><stop offset="1" stop-color="#a9e3b0"/></linearGradient></defs><title>Asset 2</title><g id="Layer_2" data-name="Layer 2"><g id="OBJECTS"><polygon class="cls-1" points="7.65 35.22 25.96 1.91 29.85 4.98 7.65 35.22"/><polygon class="cls-1" points="7.65 35.22 35.75 0 38.99 3.13 7.65 35.22"/><polygon class="cls-1" points="7.65 35.22 44.81 0.78 47.93 4.98 7.65 35.22"/><polygon class="cls-2" points="86.23 56.05 46.19 87.17 11.69 37.67 51.73 6.56 86.23 56.05"/><path class="cls-3" d="M11.69,37.67s-3.63,2-7.19.93a3.12,3.12,0,0,1-2.24-4.3L0,36.61,34.51,87.88s4.7,3.33,11.68-.71Z"/><path class="cls-4" d="M18.3,5,2.26,34.3s-.94,3.38,2.24,4.3S12,37.22,12,37.22L50.8,7.54"/><path class="cls-5" d="M65.93,53.47a18,18,0,1,0,18,18A18,18,0,0,0,65.93,53.47Zm0,32.71A14.73,14.73,0,0,1,51.22,71.47a14.54,14.54,0,0,1,3.22-9.16L75.09,83A14.58,14.58,0,0,1,65.93,86.18Zm11.49-5.55L56.77,60A14.69,14.69,0,0,1,77.42,80.63Z"/><path class="cls-6" d="M70.48,60.65a1.14,1.14,0,0,0-1.14,1.13v7.81a3.75,3.75,0,0,0-1-.21V59.76a1.15,1.15,0,1,0-2.29,0v8.47l5.53,5.53v-12A1.15,1.15,0,0,0,70.48,60.65Z"/><path class="cls-6" d="M64,60.3a1.14,1.14,0,0,0-1.14,1.14V65l2.29,2.28V61.44A1.15,1.15,0,0,0,64,60.3Z"/><path class="cls-6" d="M73.86,72.92l-1.53,1.53,2.1,2.11L76,75c.34-.35.16-1.11-.43-1.69S74.21,72.57,73.86,72.92Z"/><path class="cls-6" d="M59.74,71.52a3.56,3.56,0,0,0-.05.47v5.73a3.45,3.45,0,0,0,3.68,3.13H68a4,4,0,0,0,2.75-1.06h0l0,0,0,0-11-11Z"/><path class="cls-6" d="M60.89,62a1.16,1.16,0,0,0-.75.28L62,64.16v-1A1.14,1.14,0,0,0,60.89,62Z"/></g></g></svg>