<svg xmlns="http://www.w3.org/2000/svg" viewBox="0 0 65.95 68.82"><defs><style>.cls-1{fill:#760af2;}</style></defs><title>Asset 1</title><g id="Layer_2" data-name="Layer 2"><g id="Layer_1-2" data-name="Layer 1"><path class="cls-1" d="M55.74,13.7l-7.13-1.86C40.49,9.75,35.36,8.57,33,8V61a20,20,0,0,0,11-3.25c9-5.84,11.66-10.18,10.88-17.84C53.64,27.94,54.46,19.45,55.74,13.7Z"/><path class="cls-1" d="M50.57,4.23C38.52,1.12,33,0,33,0s-5.54,1.12-17.6,4.23C4,7.16,0,8.33,0,8.33s5.56,8.28,3.28,30.75C2,51.55,8.35,58.24,17.71,64.31a28.09,28.09,0,0,0,30.53,0c9.36-6.07,15.68-12.76,14.43-25.23C60.39,16.61,66,8.33,66,8.33S62,7.16,50.57,4.23ZM58.46,39.5c1,10.31-3.8,15.61-12.52,21.26a23.86,23.86,0,0,1-25.93,0C11.29,55.11,6.45,49.81,7.49,39.5c1.45-14.31-.14-23.32-1.73-28.38,2.42-.64,5.88-1.57,10.67-2.81C25.61,6,31,4.74,33,4.32c2,.42,7.37,1.64,16.55,4,4.77,1.24,8.25,2.17,10.67,2.81C58.6,16.18,57,25.18,58.46,39.5Z"/></g></g></svg>