<svg xmlns="http://www.w3.org/2000/svg" xmlns:xlink="http://www.w3.org/1999/xlink" viewBox="0 0 86.23 89.17"><defs><style>.cls-1{fill:#fff;}.cls-2{fill:url(#Degradado_sin_nombre_11);}.cls-3{fill:#75aff5;}.cls-4{fill:none;stroke:#75aff5;stroke-linecap:round;stroke-miterlimit:10;stroke-width:3.56px;}</style><linearGradient id="Degradado_sin_nombre_11" x1="50.24" y1="8.3" x2="47.55" y2="89.36" gradientUnits="userSpaceOnUse"><stop offset="0" stop-color="#75aff5"/><stop offset="1" stop-color="#a9e3b0"/></linearGradient></defs><title>Asset 1</title><g id="Layer_2" data-name="Layer 2"><g id="OBJECTS"><polygon class="cls-1" points="7.65 35.22 25.96 1.91 29.85 4.98 7.65 35.22"/><polygon class="cls-1" points="7.65 35.22 35.75 0 38.99 3.13 7.65 35.22"/><polygon class="cls-1" points="7.65 35.22 44.81 0.78 47.93 4.98 7.65 35.22"/><polygon class="cls-2" points="86.23 56.05 46.19 87.17 11.69 37.67 51.73 6.56 86.23 56.05"/><path class="cls-3" d="M11.69,37.67s-3.63,2-7.19.93a3.12,3.12,0,0,1-2.24-4.3L0,36.61,34.51,87.88s4.7,3.33,11.68-.71Z"/><path class="cls-4" d="M18.3,5,2.26,34.3s-.94,3.38,2.24,4.3S12,37.22,12,37.22L50.8,7.54"/></g></g></svg>