<svg xmlns="http://www.w3.org/2000/svg" viewBox="0 0 157.55 146.04"><defs><style>.cls-1{fill:#08f4a6;}</style></defs><title>Asset 2</title><g id="Layer_2" data-name="Layer 2"><g id="Layer_1-2" data-name="Layer 1"><path class="cls-1" d="M157,66.65l.56-46.89a5.86,5.86,0,0,0-4.12-5.66L108.62.26a5.88,5.88,0,0,0-5.17.86L2.41,74.73a5.86,5.86,0,0,0-1.29,8.18l44.24,60.73a5.85,5.85,0,0,0,8.18,1.28l101-73.61A5.81,5.81,0,0,0,157,66.65ZM135.74,31.32a5.82,5.82,0,1,1,8.14,1.28A5.82,5.82,0,0,1,135.74,31.32Z"/></g></g></svg>