<svg xmlns="http://www.w3.org/2000/svg" xmlns:xlink="http://www.w3.org/1999/xlink" viewBox="0 0 136.85 133.16"><defs><style>.cls-1,.cls-2,.cls-3,.cls-4,.cls-5,.cls-6,.cls-7,.cls-8{fill-rule:evenodd;}.cls-1{fill:url(#GradientFill_6);}.cls-2{fill:url(#GradientFill_7);}.cls-3{fill:#ffbbb8;}.cls-4{fill:url(#linear-gradient);}.cls-5{fill:url(#linear-gradient-2);}.cls-6{fill:#9da5ab;}.cls-7{fill:#d4d4d4;}.cls-8{fill:url(#linear-gradient-3);}</style><linearGradient id="GradientFill_6" x1="34.22" y1="129.23" x2="169.15" y2="48.16" gradientUnits="userSpaceOnUse"><stop offset="0"/><stop offset="1" stop-color="#6d6e71"/></linearGradient><linearGradient id="GradientFill_7" x1="40.76" y1="141.94" x2="14.66" y2="19.13" gradientUnits="userSpaceOnUse"><stop offset="0" stop-color="#58595b"/><stop offset="1" stop-color="#858d91"/></linearGradient><linearGradient id="linear-gradient" x1="0.13" y1="96.4" x2="132.28" y2="-10.62" gradientUnits="userSpaceOnUse"><stop offset="0" stop-color="#bb4247"/><stop offset="1" stop-color="#ee343c"/></linearGradient><linearGradient id="linear-gradient-2" x1="16.28" y1="26.79" x2="89.32" y2="18.18" xlink:href="#linear-gradient"/><linearGradient id="linear-gradient-3" x1="48.54" y1="79.63" x2="76.07" y2="57.34" xlink:href="#linear-gradient"/></defs><title>Asset 1</title><g id="Layer_2" data-name="Layer 2"><g id="Слой_1" data-name="Слой 1"><polygon class="cls-1" points="134.78 110.98 59.7 133.16 59.7 83.48 82.51 77.67 82.64 61.14 116.6 52.97 116.9 37.39 136.85 32.86 134.78 110.98"/><polygon class="cls-2" points="59.7 83.48 59.7 133.16 1.6 105.26 0 27 15.49 33.06 15.73 48.67 41.97 59.4 42.07 75.95 59.7 83.48"/><polygon class="cls-3" points="15.49 33.06 0 27 13.4 24.35 13.56 24.35 126.08 29.15 136.85 32.86 116.9 37.39 15.49 33.06"/><polygon class="cls-4" points="116.9 37.39 116.6 52.97 15.73 48.67 15.49 33.06 116.9 37.39"/><polygon class="cls-3" points="15.73 48.67 116.6 52.97 82.64 61.14 41.97 59.4 15.73 48.67"/><polygon class="cls-5" points="126.08 29.15 13.56 24.35 13.36 11.83 126.36 16.65 126.08 29.15"/><polygon class="cls-6" points="126.36 16.65 13.36 11.83 13.21 11.83 76.17 0 126.36 16.65"/><polygon class="cls-7" points="13.21 11.83 13.36 11.83 13.56 24.35 13.4 24.35 13.21 11.83"/><polygon class="cls-3" points="59.7 83.48 42.07 75.95 82.51 77.67 59.7 83.48"/><polygon class="cls-8" points="41.97 59.4 82.64 61.14 82.51 77.67 42.07 75.95 41.97 59.4"/></g></g></svg>