<svg xmlns="http://www.w3.org/2000/svg" viewBox="0 0 496.69 613"><defs><style>.cls-1{fill:#aad4c8;}.cls-2{fill:#616e7d;}.cls-3{fill:#82bfab;}</style></defs><title>Asset 1</title><g id="Layer_2" data-name="Layer 2"><g id="Object"><path class="cls-1" d="M271.19,475.62v-43a43.57,43.57,0,0,0,20.88-37.14c0-33.2-37-57.75-72-34.68a22.72,22.72,0,0,0-6.49,6.54c-17.18,26.39-7.63,53.19,11.95,65.28v43Z"/><path class="cls-2" d="M186,97.8c79.38-50.42,163,5.84,163,81.33h78.53c0-128.93-137-226.51-273-154.87-52.94,27.88-85.27,83.67-85.27,143.51v77.45H34.07A34.07,34.07,0,0,0,0,279.29V549.78H496.69V279.28a34.05,34.05,0,0,0-34.05-34.06H147.78V168A83.13,83.13,0,0,1,186,97.8Zm27.58,269.55a22.72,22.72,0,0,1,6.49-6.54c35-23.07,72,1.48,72,34.68a43.57,43.57,0,0,1-20.88,37.14v43H225.51v-43C205.93,420.54,196.38,393.74,213.56,367.35Z"/><path class="cls-2" d="M54.53,613H442.19a54.46,54.46,0,0,0,52.75-41.07H1.76A54.5,54.5,0,0,0,54.53,613Z"/><path class="cls-3" d="M0,558.45a54,54,0,0,0,1.76,13.48H494.94a54.49,54.49,0,0,0,1.75-13.48v-8.67H0Z"/></g></g></svg>